<svg width="17" height="19" viewBox="0 0 17 19" fill="none" xmlns="http://www.w3.org/2000/svg">
<path d="M15.6687 14.8068C15.3813 15.4706 15.0412 16.0816 14.6471 16.6434C14.11 17.4092 13.6702 17.9393 13.3313 18.2337C12.8058 18.7169 12.2429 18.9644 11.6401 18.9784C11.2073 18.9784 10.6854 18.8553 10.0779 18.6055C9.4684 18.3568 8.90827 18.2337 8.3961 18.2337C7.85896 18.2337 7.28288 18.3568 6.66669 18.6055C6.04956 18.8553 5.55241 18.9855 5.1723 18.9984C4.59422 19.023 4.01803 18.7685 3.44288 18.2337C3.0758 17.9135 2.61664 17.3647 2.0666 16.5871C1.47644 15.7567 0.991254 14.7939 0.611148 13.6961C0.204068 12.5104 0 11.3622 0 10.2507C0 8.97735 0.27514 7.87913 0.82624 6.95883C1.25936 6.21962 1.83556 5.6365 2.55671 5.20842C3.27787 4.78035 4.05708 4.56221 4.89622 4.54825C5.35537 4.54825 5.95749 4.69028 6.70574 4.96941C7.45188 5.24947 7.93097 5.3915 8.14102 5.3915C8.29806 5.3915 8.83028 5.22543 9.73251 4.89435C10.5857 4.58731 11.3058 4.46018 11.8957 4.51025C13.4943 4.63926 14.6952 5.26941 15.4939 6.40468C14.0643 7.27092 13.3571 8.48418 13.3711 10.0406C13.384 11.2529 13.8238 12.2618 14.6882 13.0628C15.0799 13.4346 15.5174 13.7219 16.0041 13.926C15.8985 14.2321 15.7871 14.5253 15.6687 14.8068ZM12.0025 0.380108C12.0025 1.33033 11.6553 2.21754 10.9634 3.03874C10.1283 4.01498 9.11832 4.5791 8.02303 4.49008C8.00908 4.37609 8.00099 4.25611 8.00099 4.13003C8.00099 3.21782 8.3981 2.24158 9.1033 1.44337C9.45538 1.03922 9.90316 0.70318 10.4462 0.435112C10.988 0.171044 11.5005 0.025008 11.9825 0C11.9966 0.127029 12.0025 0.254079 12.0025 0.380108Z" fill="#3A3C3F"/>
</svg>
