<svg width="24" height="16" viewBox="0 0 24 16" fill="none" xmlns="http://www.w3.org/2000/svg">
<path fill-rule="evenodd" clip-rule="evenodd" d="M0.32698 1.63803C0.145452 1.9943 0.0647016 2.4117 0.0287814 3.00004H23.9712C23.9353 2.4117 23.8545 1.9943 23.673 1.63803C23.3854 1.07354 22.9265 0.614601 22.362 0.32698C21.7202 0 20.8802 0 19.2 0H4.8C3.11984 0 2.27976 0 1.63803 0.32698C1.07354 0.614601 0.614601 1.07354 0.32698 1.63803ZM24 6.00004H0V11.2C0 12.8802 0 13.7202 0.32698 14.362C0.614601 14.9265 1.07354 15.3854 1.63803 15.673C2.27976 16 3.11984 16 4.8 16H19.2C20.8802 16 21.7202 16 22.362 15.673C22.9265 15.3854 23.3854 14.9265 23.673 14.362C24 13.7202 24 12.8802 24 11.2V6.00004ZM2 12H8V14H2V12Z" fill="white"/>
</svg>
