<svg width="24" height="22" viewBox="0 0 24 22" fill="none" xmlns="http://www.w3.org/2000/svg">
<path d="M23.8334 11.0001C23.8334 4.93432 18.9055 0 12.8476 0C7.62149 0 3.23958 3.67356 2.13362 8.5763H0.478377C0.023251 8.5763 -0.135415 8.88147 0.126047 9.25469L2.65858 12.871C2.92005 13.2443 3.34802 13.2443 3.60917 12.871L6.14265 9.25469C6.40395 8.88147 6.24529 8.5763 5.79001 8.5763H4.43954C5.49229 4.92002 8.86195 2.23742 12.8477 2.23742C17.673 2.23742 21.5989 6.16822 21.5989 11.0001C21.5989 15.4787 18.2261 19.1799 13.8911 19.6983C13.7993 19.7093 13.7076 19.7189 13.6158 19.7271C13.5507 19.7326 13.4852 19.7378 13.4198 19.7428C13.3346 19.7483 13.2492 19.7524 13.1641 19.7557C13.0921 19.7582 13.0198 19.7604 12.9472 19.761C10.7607 19.7886 8.64334 18.9936 7.01398 17.5332C6.90544 17.4311 6.7776 17.3518 6.638 17.2999C6.4984 17.248 6.34984 17.2245 6.20106 17.2309C6.05228 17.2373 5.90628 17.2735 5.77165 17.3372C5.63701 17.4009 5.51646 17.4909 5.41707 17.602C5.31768 17.713 5.24146 17.8428 5.1929 17.9838C5.14434 18.1248 5.12441 18.274 5.13428 18.4228C5.14416 18.5716 5.18363 18.7169 5.2504 18.8502C5.31716 18.9834 5.40986 19.102 5.52305 19.1989C7.53539 21.0043 10.1428 22.0019 12.8448 22.0002C13.0125 22.0002 13.1805 21.995 13.3487 21.9874L13.4666 21.9816C13.6262 21.9725 13.7861 21.9607 13.946 21.9447C13.9774 21.9419 14.0088 21.9375 14.0402 21.9342C14.1224 21.9251 14.2048 21.9167 14.2872 21.9059C14.3062 21.9032 14.3244 21.8988 14.3432 21.8957C19.6955 21.1623 23.8334 16.5573 23.8334 11.0001Z" fill="currentColor"/>
<path d="M12.848 4.04309C12.5517 4.04309 12.2675 4.16095 12.058 4.37075C11.8485 4.58055 11.7308 4.8651 11.7308 5.1618V11C11.7309 11.2967 11.8486 11.5812 12.0581 11.791C12.2676 12.0008 12.5517 12.1186 12.848 12.1187H17.9338C18.2301 12.1187 18.5143 12.0009 18.7238 11.7911C18.9334 11.5813 19.0511 11.2967 19.0511 11C19.0511 10.7033 18.9334 10.4188 18.7238 10.209C18.5143 9.99917 18.2301 9.88131 17.9338 9.88131H13.9651V5.1618C13.9651 5.0149 13.9363 4.86943 13.8801 4.7337C13.824 4.59797 13.7417 4.47465 13.638 4.37076C13.5343 4.26688 13.4111 4.18447 13.2756 4.12825C13.14 4.07203 12.9947 4.04309 12.848 4.04309Z" fill="currentColor"/>
</svg>
