<svg width="22" height="23" viewBox="0 0 22 23" fill="none" xmlns="http://www.w3.org/2000/svg">
<path d="M10.8947 1L2.79903 10.0821V20.9806C2.79903 21.2215 2.8938 21.4525 3.06249 21.6228C3.23118 21.7931 3.45998 21.8888 3.69855 21.8888H18.0909C18.3295 21.8888 18.5583 21.7931 18.727 21.6228C18.8956 21.4525 18.9904 21.2215 18.9904 20.9806V10.0821L10.8947 1Z" stroke="currentColor" stroke-width="2" stroke-linecap="round" stroke-linejoin="round"/>
<path d="M10.8947 1L1 11.8985" stroke="currentColor" stroke-width="2" stroke-linecap="round" stroke-linejoin="round"/>
<path d="M10.8947 1L20.7895 11.8985" stroke="currentColor" stroke-width="2" stroke-linecap="round" stroke-linejoin="round"/>
<path d="M10.8947 13.715C12.3851 13.715 13.5933 12.4951 13.5933 10.9904C13.5933 9.4856 12.3851 8.26575 10.8947 8.26575C9.40436 8.26575 8.19617 9.4856 8.19617 10.9904C8.19617 12.4951 9.40436 13.715 10.8947 13.715Z" stroke="currentColor" stroke-width="2" stroke-linecap="round" stroke-linejoin="round"/>
</svg>
