<svg width="30" height="25" viewBox="0 0 30 25" fill="none" xmlns="http://www.w3.org/2000/svg">
<path fill-rule="evenodd" clip-rule="evenodd" d="M0.00116786 9.99591H2.50977V4.99183C2.51301 3.66901 3.03973 2.40129 3.97478 1.46585C4.90983 0.530421 6.17712 0.00338988 7.49956 0H22.4993C25.2599 0 27.5036 2.24498 27.5036 4.99183V9.99767H30V12.4936H0L0.00116786 9.99591ZM5.00554 9.99591H25.0102V4.99183C25.0077 4.32831 24.7422 3.69286 24.2719 3.22494C23.8016 2.75701 23.1649 2.49483 22.5016 2.49591H7.49956C6.83832 2.49761 6.20464 2.76112 5.73707 3.22882C5.2695 3.69653 5.00607 4.33039 5.00438 4.99183L5.00554 9.99591ZM27.5048 15.0023V19.9936C27.5037 21.3209 26.9762 22.5936 26.0379 23.5323C25.0997 24.4709 23.8274 24.9988 22.5004 25H7.49956C4.75351 25 2.50977 22.755 2.50977 19.9936V15.0041H5.00438V19.9953C5.00329 20.6589 5.2654 21.2957 5.73319 21.7662C6.20098 22.2366 6.83623 22.5022 7.49956 22.5047H22.4993C23.1646 22.5047 23.8027 22.2403 24.2731 21.7697C24.7436 21.2991 25.0079 20.6608 25.0079 19.9953V15.0041L27.5048 15.0023Z" fill="currentColor"/>
</svg>
