<svg width="28" height="23" viewBox="0 0 28 23" fill="none" xmlns="http://www.w3.org/2000/svg">
<path fill-rule="evenodd" clip-rule="evenodd" d="M6.35003 0.5H6.31771C5.45253 0.499993 4.75757 0.499987 4.1954 0.545918C3.61749 0.593135 3.1142 0.692604 2.64992 0.929164C1.90903 1.30667 1.30667 1.90903 0.929164 2.64992C0.692604 3.1142 0.593135 3.61749 0.545919 4.1954C0.499988 4.75756 0.499993 5.45253 0.5 6.31771V6.31771V6.35002V6.5C0.5 6.91421 0.835787 7.25 1.25 7.25C1.66421 7.25 2 6.91421 2 6.5V6.35002C2 5.44506 2.00058 4.81144 2.04094 4.31754C2.08057 3.8324 2.15481 3.54848 2.26567 3.33091C2.49937 2.87226 2.87226 2.49937 3.33091 2.26567C3.54848 2.15481 3.8324 2.08057 4.31755 2.04094C4.81144 2.00058 5.44506 2 6.35003 2H7.75C8.16421 2 8.5 1.66421 8.5 1.25C8.5 0.835787 8.16421 0.5 7.75 0.5H6.35003ZM22.15 2C23.0549 2 23.6886 2.00058 24.1825 2.04094C24.6676 2.08057 24.9515 2.15481 25.1691 2.26567C25.6277 2.49937 26.0006 2.87226 26.2343 3.33091C26.3452 3.54848 26.4194 3.8324 26.4591 4.31754C26.4994 4.81144 26.5 5.44506 26.5 6.35002V6.5C26.5 6.91421 26.8358 7.25 27.25 7.25C27.6642 7.25 28 6.91421 28 6.5V6.35002V6.31769C28 5.45252 28 4.75756 27.9541 4.1954C27.9069 3.61749 27.8074 3.1142 27.5708 2.64992C27.1933 1.90903 26.591 1.30667 25.8501 0.929164C25.3858 0.692604 24.8825 0.593135 24.3046 0.545918C23.7424 0.499987 23.0475 0.499993 22.1823 0.5H22.15H20.75C20.3358 0.5 20 0.835787 20 1.25C20 1.66421 20.3358 2 20.75 2H22.15ZM2 17C2 16.5858 1.66421 16.25 1.25 16.25C0.835787 16.25 0.5 16.5858 0.5 17V17.15V17.1823C0.499993 18.0475 0.499988 18.7424 0.545919 19.3046C0.593135 19.8825 0.692604 20.3858 0.929164 20.8501C1.30667 21.591 1.90903 22.1933 2.64992 22.5708C3.11419 22.8074 3.61749 22.9069 4.1954 22.9541C4.75756 23 5.45252 23 6.31769 23H6.35003H7.75C8.16421 23 8.5 22.6642 8.5 22.25C8.5 21.8358 8.16421 21.5 7.75 21.5H6.35003C5.44506 21.5 4.81144 21.4994 4.31755 21.4591C3.8324 21.4194 3.54848 21.3452 3.33091 21.2343C2.87226 21.0006 2.49937 20.6277 2.26567 20.1691C2.15481 19.9515 2.08057 19.6676 2.04094 19.1825C2.00058 18.6886 2 18.0549 2 17.15V17ZM28 17C28 16.5858 27.6642 16.25 27.25 16.25C26.8358 16.25 26.5 16.5858 26.5 17V17.15C26.5 18.0549 26.4994 18.6886 26.4591 19.1825C26.4194 19.6676 26.3452 19.9515 26.2343 20.1691C26.0006 20.6277 25.6277 21.0006 25.1691 21.2343C24.9515 21.3452 24.6676 21.4194 24.1825 21.4591C23.6886 21.4994 23.0549 21.5 22.15 21.5H20.75C20.3358 21.5 20 21.8358 20 22.25C20 22.6642 20.3358 23 20.75 23H22.15H22.1823C23.0475 23 23.7424 23 24.3046 22.9541C24.8825 22.9069 25.3858 22.8074 25.8501 22.5708C26.591 22.1933 27.1933 21.591 27.5708 20.8501C27.8074 20.3858 27.9069 19.8825 27.9541 19.3046C28 18.7424 28 18.0475 28 17.1823V17.15V17ZM5.27159 8C5.29853 7.55876 5.35909 7.24572 5.49524 6.97852C5.71095 6.55516 6.05516 6.21095 6.47852 5.99524C6.95982 5.75 7.58988 5.75 8.85 5.75H19.65C20.9101 5.75 21.5402 5.75 22.0215 5.99524C22.4448 6.21095 22.789 6.55516 23.0048 6.97852C23.1409 7.24572 23.2015 7.55876 23.2284 8H5.27159ZM5.25 10.25H23.25V14.15C23.25 15.4101 23.25 16.0402 23.0048 16.5215C22.789 16.9448 22.4448 17.289 22.0215 17.5048C21.5402 17.75 20.9101 17.75 19.65 17.75H8.85C7.58988 17.75 6.95982 17.75 6.47852 17.5048C6.05516 17.289 5.71095 16.9448 5.49524 16.5215C5.25 16.0402 5.25 15.4101 5.25 14.15V10.25ZM11.25 14.75H6.75V16.25H11.25V14.75Z" fill="#ABABAB"/>
</svg>
